<svg xmlns="http://www.w3.org/2000/svg" width="800" height="800" viewBox="0 0 800 800">
  <defs>
    <linearGradient id="bg" x1="0" y1="0" x2="1" y2="1">
      <stop offset="0%" stop-color="#4d7c0f"/>
      <stop offset="100%" stop-color="#365314"/>
    </linearGradient>
    <radialGradient id="glow" cx="50%" cy="52%" r="45%">
      <stop offset="0%" stop-color="rgba(255,255,255,0.16)"/>
      <stop offset="100%" stop-color="rgba(255,255,255,0)"/>
    </radialGradient>
  </defs>
  <rect width="800" height="800" fill="url(#bg)"/>
  <rect width="800" height="800" fill="url(#glow)"/>
  <g stroke="rgba(255,255,255,0.06)" stroke-width="1">
    <line x1="80" y1="0" x2="80" y2="800"/><line x1="160" y1="0" x2="160" y2="800"/><line x1="240" y1="0" x2="240" y2="800"/><line x1="320" y1="0" x2="320" y2="800"/><line x1="400" y1="0" x2="400" y2="800"/><line x1="480" y1="0" x2="480" y2="800"/><line x1="560" y1="0" x2="560" y2="800"/><line x1="640" y1="0" x2="640" y2="800"/><line x1="720" y1="0" x2="720" y2="800"/>
    <line x1="0" y1="80" x2="800" y2="80"/><line x1="0" y1="160" x2="800" y2="160"/><line x1="0" y1="240" x2="800" y2="240"/><line x1="0" y1="320" x2="800" y2="320"/><line x1="0" y1="400" x2="800" y2="400"/><line x1="0" y1="480" x2="800" y2="480"/><line x1="0" y1="560" x2="800" y2="560"/><line x1="0" y1="640" x2="800" y2="640"/><line x1="0" y1="720" x2="800" y2="720"/>
  </g>
  <text x="400" y="456" text-anchor="middle" font-size="220" dominant-baseline="middle">⌨️</text>
  <text x="400" y="620" text-anchor="middle" font-family="-apple-system, 'Segoe UI', Roboto, sans-serif" font-size="36" font-weight="600" fill="rgba(255,255,255,0.92)">Mech TKL Mechanical</text>
  <text x="400" y="664" text-anchor="middle" font-family="-apple-system, 'Segoe UI', Roboto, sans-serif" font-size="36" font-weight="600" fill="rgba(255,255,255,0.92)">Keyboard</text>
  <text x="400" y="756" text-anchor="middle" font-family="-apple-system, 'Segoe UI', Roboto, sans-serif" font-size="20" font-weight="700" letter-spacing="6" fill="rgba(255,255,255,0.45)">INTERSOFT</text>
</svg>
